<svg width="505" height="497" viewBox="0 0 505 497" fill="none" xmlns="http://www.w3.org/2000/svg">
<path d="M299.909 236.962C306.614 259.922 313.275 282.472 319.915 305.028C329.923 339.021 339.916 373.017 349.915 407.012C352.404 415.472 354.891 423.932 357.319 432.189C361.18 432.898 365.313 432.928 368.794 434.449C375.768 437.496 379.041 445.75 376.799 453.897C374.987 460.477 368.36 465.337 361.636 465.039C350.327 464.537 338.979 464.912 327.648 464.897C321.005 464.888 314.916 460.406 313.145 454.271C311.056 447.032 313.512 439.672 319.269 435.816C320.483 435.002 321.628 434.084 323.129 432.974C319.456 420.745 315.702 408.437 312.073 396.092C309.91 388.732 307.849 381.338 305.929 373.912C304.971 370.206 303.247 368.757 299.08 368.783C265.588 368.995 232.093 368.902 198.6 368.901C195.976 368.901 193.722 368.504 192.649 372.316C186.949 392.581 180.854 412.735 174.793 433.275C182.427 436.79 185.768 442.591 185.064 451.086C184.452 458.468 178.47 464.855 170.986 464.887C158.989 464.939 146.991 464.938 134.993 464.888C127.245 464.855 121.036 458.483 120.964 450.631C120.876 441.028 123.323 436.406 130.739 433.741C133.59 432.716 136.88 432.914 140.415 432.503C145.498 415.565 150.75 398.28 155.867 380.955C161.28 362.626 166.537 344.252 171.911 325.912C180.224 297.54 188.599 269.186 196.909 240.813C202.647 221.222 208.361 201.623 213.925 181.982C214.3 180.658 213.832 178.449 212.896 177.494C196.19 160.458 196.986 127.154 214.272 110.737C224.249 101.262 235.703 96.1048 248.708 96.1567C275.003 96.2616 296.806 116.914 297.104 142.624C297.264 156.336 293.779 168.189 284.291 178.203C283.656 178.873 283.569 180.519 283.854 181.536C287.597 194.9 291.43 208.239 295.293 221.569C296.746 226.584 298.33 231.561 299.909 236.962ZM282.486 294.926C281.797 292.965 281.109 291.003 280.44 289.1C259.236 289.1 238.287 289.1 217.22 289.1C212.56 305.011 207.945 320.77 203.258 336.774C233.952 336.774 264.073 336.774 294.473 336.774C293.575 333.29 292.797 329.97 291.859 326.697C288.893 316.342 285.867 306.005 282.486 294.926ZM261.475 223.866C258.462 213.577 255.449 203.288 252.485 193.163C249.834 193.163 247.549 193.163 245.444 193.163C239.195 214.405 233.031 235.361 226.812 256.5C241.763 256.5 256.263 256.5 271.048 256.5C267.902 245.566 264.884 235.079 261.475 223.866Z" fill="#4C46C8"/>
<path d="M94.6323 61.5918C83.1613 82.4713 76.3491 104.568 74.288 127.777C72.2198 151.068 73.9986 174.244 81.3627 196.74C86.8292 213.439 94.1149 229.204 104.137 243.68C108.616 250.149 109.273 256.895 104.961 263.777C101.235 269.723 95.5459 271.318 88.9942 270.848C83.5056 270.454 79.8493 267.093 76.9737 262.846C59.2734 236.699 47.4527 208.166 43.0012 176.826C37.411 137.47 41.3051 99.1093 57.4056 62.5713C62.8773 50.1537 70.123 38.4645 77.1719 26.8139C81.9246 18.9583 92.2085 16.9236 99.5127 21.4181C107.166 26.1276 109.696 36.5368 104.977 44.6939C101.733 50.3019 98.2079 55.7475 94.6323 61.5918Z" fill="#13104C"/>
<path d="M391.878 247.842C392.834 245.947 393.784 244.048 394.746 242.155C401.301 229.245 407.859 216.335 414.825 203.06C415.192 202.103 415.151 201.512 415.109 200.92C416.333 197.133 417.557 193.345 419.253 189.084C422.328 186.439 424.081 184.111 421.125 180.926C422.098 171.548 423.071 162.17 424.34 152.12C424.463 146.94 424.292 142.434 424.12 137.927C423.906 118.5 419.007 100.002 413.078 81.0495C414.267 77.4372 412.647 76.361 410.118 75.9082C410.063 75.4761 410.007 75.044 409.979 74.0774C409.621 73.0062 409.236 72.4696 408.85 71.9329C403.548 62.9221 398.054 54.017 393 44.8687C388.499 36.7205 391.217 26.2191 398.466 21.9903C406.578 17.2584 415.99 19.562 421.497 27.8037C440.774 56.6554 453.156 88.1002 455.946 122.853C456.995 135.919 456.651 149.098 456.859 162.227C456.879 163.514 456.313 164.81 455.614 166.65C452.171 169.314 452.756 171.572 454.946 173.893C454.924 174.968 454.902 176.044 454.664 177.629C454.316 178.745 454.183 179.352 454.051 179.958C450.206 194.192 447.324 208.782 442.221 222.55C437.867 234.299 430.962 245.103 424.657 256.673C418.841 259.4 415.257 263.22 414.002 269.008C413.53 269.282 413.059 269.555 412.068 269.813C410.694 270.113 409.839 270.429 408.984 270.745C406.55 270.53 404.115 270.316 401.251 269.649C399.544 268.763 398.267 268.328 396.991 267.894C395.684 266.473 394.376 265.051 393.112 262.951C392.73 257.463 392.304 252.653 391.878 247.842Z" fill="#13104C"/>
<path d="M370.87 104.059C383.104 145.134 378.252 183.331 354.094 218.65C349.237 225.751 338.887 227.459 331.472 222.561C323.612 217.369 321.766 207.152 327.436 198.817C335.715 186.648 341.272 173.436 343.196 158.807C346.156 136.297 342.479 115.082 330.377 95.6292C327.367 90.7898 324.444 86.1223 324.904 79.969C325.448 72.7014 329.234 67.4966 336.365 65.3306C342.511 63.4636 350.957 65.8436 354.078 71.4147C359.994 81.9712 365.24 92.9024 370.87 104.059Z" fill="#13104C"/>
<path d="M158.297 115.343C149.874 144.219 152.919 171.188 168.911 196.487C172.1 201.533 175.216 206.648 173.131 213.248C171.061 219.803 166.834 223.633 160.219 224.902C153.393 226.212 147.698 224.198 143.725 218.411C128.851 196.748 121.05 173.035 120.764 146.463C120.476 119.731 127.682 95.6501 142.204 73.5229C148.042 64.6278 157.19 62.5916 165.974 67.9658C173.226 72.4031 175.007 82.3359 170.435 90.9714C166.251 98.8728 162.423 106.963 158.297 115.343Z" fill="#13104C"/>
<path d="M414.332 268.911C415.257 263.22 418.841 259.4 424.471 256.965C421.428 260.877 418.045 264.845 414.332 268.911Z" fill="#13104C"/>
<path d="M391.647 248.14C392.304 252.653 392.73 257.463 393.032 262.631C389.696 258.417 389.043 253.583 391.647 248.14Z" fill="#13104C"/>
<path d="M424.08 138.388C424.292 142.434 424.463 146.94 424.377 151.66C424.093 147.532 424.066 143.19 424.08 138.388Z" fill="#13104C"/>
<path d="M420.949 181.256C424.081 184.111 422.328 186.439 419.423 188.747C419.672 186.452 420.223 184.019 420.949 181.256Z" fill="#13104C"/>
<path d="M455.147 173.56C452.756 171.572 452.171 169.314 455.507 167.059C455.653 169.022 455.501 171.124 455.147 173.56Z" fill="#13104C"/>
<path d="M410.216 76.2146C412.647 76.361 414.267 77.4372 413.03 80.6666C412.024 79.482 411.169 78.0015 410.216 76.2146Z" fill="#13104C"/>
<path d="M397.229 268.109C398.267 268.328 399.544 268.763 400.89 269.47C399.795 269.27 398.631 268.796 397.229 268.109Z" fill="#13104C"/>
<path d="M409.311 270.76C409.839 270.429 410.694 270.113 411.799 269.88C411.245 270.233 410.441 270.505 409.311 270.76Z" fill="#13104C"/>
<path d="M408.933 72.2101C409.236 72.4696 409.621 73.0062 409.942 73.7527C409.59 73.4707 409.303 72.979 408.933 72.2101Z" fill="#13104C"/>
<path d="M454.236 179.748C454.183 179.352 454.316 178.745 454.627 178.031C454.678 178.461 454.55 178.999 454.236 179.748Z" fill="#13104C"/>
<path d="M415.062 201.245C415.151 201.512 415.192 202.103 415.047 202.784C414.911 202.439 414.963 202.004 415.062 201.245Z" fill="#13104C"/>
</svg>
